<svg id="Layer_1" data-name="Layer 1" xmlns="http://www.w3.org/2000/svg" viewBox="0 0 2000 2000">
  <defs>
    <style>
      .cls-1 {
        fill: #ffa800;
      }

      .cls-2 {
        fill: #fff;
      }
    </style>
  </defs>
  <title>Untitled-1</title>
  <g>
    <g>
      <path class="cls-1" d="M1375.92,471.66C1344,550.41,1311.6,629,1280.21,708q-127.83,321.56-255,643.38c-16.67,42.09-28.19,46.81-68.64,27.51-113.66-54.21-227.28-108.52-348.92-166.62l537.11-528C1088.38,730.86,1031.55,777,975,823.42q-208.17,171-416,342.46c-13.8,11.44-24.32,12.51-39.9,4.93-85.13-41.41-170.87-81.58-256-123-.55-.27-1.09-.55-1.63-.83-26.61-14.25-26.83-52.91-.49-67.64.59-.33,1.19-.65,1.79-.95,67.12-33.86,134.81-66.61,202.31-99.71Q900.89,665,1336.57,451.1c5.89-2.9,11.51-5.54,16.94-6.7a19.58,19.58,0,0,1,21.3,9.8A20,20,0,0,1,1375.92,471.66Z"/>
      <path class="cls-2" d="M990.91,1398.25c-10.78,0-23-4.61-38-11.74-84.78-40.43-168.74-80.54-257.62-123L604,1219.89a8.5,8.5,0,0,1-2.3-13.73C737.27,1072.89,871,941.47,1004.41,810.3q-12,9.86-24,19.69l-84.56,69.45c-108.76,89.3-221.23,181.64-331.41,273-16.14,13.38-30.35,15.13-49,6-41.71-20.29-84.29-40.62-125.47-60.29-42.82-20.45-87.11-41.6-130.51-62.75-.63-.31-1.23-.62-1.83-.93l-.09,0a47.23,47.23,0,0,1-.63-82.55c.7-.39,1.42-.78,2.14-1.13C309.89,945.07,362,919.6,412.36,895q24.5-12,49-24l148.32-72.72c237.06-116.22,482.18-236.4,723.15-354.82,6.32-3.11,12.53-6,18.91-7.38a28.12,28.12,0,0,1,30.49,14,28.47,28.47,0,0,1,1.58,24.81h0c-9.86,24.3-19.92,49-29.65,72.85-21.8,53.49-44.35,108.81-66,163.39-61.63,155-124.07,312.75-184.45,465.27q-35.27,89.06-70.53,178.1c-8.6,21.71-16.67,36.25-30.35,41.62A32,32,0,0,1,990.91,1398.25ZM622.28,1209.78l80.36,38.39c88.88,42.46,172.83,82.56,257.61,123,19.07,9.09,29.59,11.73,36.31,9.09s12.81-12,20.77-32.06q35.26-89,70.52-178.1c60.39-152.53,122.83-310.25,184.46-465.29,21.72-54.65,44.28-110,66.1-163.53,9.73-23.86,19.79-48.53,29.63-72.81a11.5,11.5,0,0,0-.63-10.1,11.14,11.14,0,0,0-12.12-5.66c-4.49,1-9.64,3.39-15,6-241,118.42-486.12,238.6-723.17,354.82L468.83,886.27q-24.49,12-49,24c-50.33,24.6-102.38,50-153.22,75.69-.51.25-1,.51-1.47.78a30.23,30.23,0,0,0,.31,52.7c.46.24.93.49,1.4.72,43.33,21.1,87.58,42.24,130.38,62.68,41.2,19.68,83.81,40,125.58,60.35,12.77,6.21,19.67,5.35,30.76-3.83C663.78,1068,776.26,975.61,885,886.3q42.29-34.72,84.56-69.45c22-18.09,44.46-36.42,66.16-54.16,34-27.8,69.18-56.55,103.6-85a8.5,8.5,0,0,1,11.38,12.61Zm753.64-738.12h0Z"/>
    </g>
    <g>
      <path class="cls-1" d="M613.56,1283.08l155.12,73.76c-43.3,29.49-84,58.15-125.8,85.23-16.08,10.43-28.85,1.63-29.13-19.33C613.14,1377.85,613.56,1333,613.56,1283.08Z"/>
      <path class="cls-2" d="M630.16,1455a22.46,22.46,0,0,1-10.62-2.61c-9-4.82-14.1-15.31-14.29-29.52-.43-31.63-.35-63.17-.26-96.56,0-14.06.07-28.41.07-43.21a8.51,8.51,0,0,1,12.15-7.68l155.12,73.76a8.51,8.51,0,0,1,1.13,14.71c-12.47,8.49-24.87,17-36.87,25.26-30.48,20.95-59.27,40.74-89.09,60.08C640.78,1453.57,634.92,1455,630.16,1455Zm-8.11-158.45q0,15.17-.06,29.8c-.09,33.32-.17,64.8.26,96.29.12,8.85,2.82,13.43,5.31,14.76s6.31.4,10.69-2.44c29.62-19.21,58.32-38.94,88.71-59.82,8.08-5.55,16.35-11.24,24.71-17Z"/>
    </g>
  </g>
</svg>
